<svg width="173" height="277" viewBox="0 0 173 277" fill="none" xmlns="http://www.w3.org/2000/svg">
<path opacity="0.7" d="M133.522 181.146C133.14 176.665 135.998 171.999 141.32 170.441C149.175 168.142 158.014 173.88 157.265 181.513C156.421 190.119 144.954 193.084 137.869 188.291C135.145 186.45 133.752 183.831 133.522 181.146Z" fill="url(#paint0_linear_301_412)"/>
<path opacity="0.7" d="M90.4713 134.632C94.6908 135.594 99.0414 135.753 103.429 136.55C115.696 138.776 118.697 149.819 128.207 155.492C144.267 165.074 169.107 149.067 167.814 132.655C167.316 126.329 162.925 121.632 158.669 116.949C153.907 111.708 150.16 106.036 149.238 99.1686C147.759 88.1328 153.162 76.3248 147.388 65.8189C143.23 58.2533 132.736 54.8967 124.001 57.5078C119.926 58.726 116.548 61.3119 115.034 65.01C113.351 69.1176 115.189 73.4896 113.826 77.5644C111.199 85.4196 96.8959 81.3235 90.3621 83.5404C85.1337 85.3152 80.6352 88.61 77.3204 92.6581C70.795 100.625 68.5529 111.798 72.9648 121.053C75.3808 126.122 79.7146 130.3 85.1177 132.835C86.8734 133.658 88.6601 134.219 90.4713 134.632Z" fill="url(#paint1_linear_301_412)"/>
<path opacity="0.7" d="M13.3055 168.281C14.0347 159.367 17.3545 150.802 24.0018 143.822C31.7226 135.714 44.1501 130.764 55.8872 133.877C66.3213 136.643 71.207 145.186 73.6842 154.148C76.2447 163.415 77.0839 173.434 85.0802 180.486C94.2669 188.586 107.858 188.237 119.089 192.453C125.857 194.993 132.82 199.739 131.131 207.186C129.71 213.459 123.567 218.763 117.964 222.221C107.267 228.82 94.1627 232.447 81.2555 232.682C59.2767 233.086 37.744 223.306 25.2333 206.851C17.0278 196.06 12.2 181.772 13.3055 168.281Z" fill="url(#paint2_linear_301_412)"/>
<path d="M20.3976 275.699C19.0989 268.851 17.801 262.002 16.5023 255.155C16.315 254.162 16.126 253.168 15.9378 252.175C15.9067 252.013 15.7034 251.895 15.5329 251.895H15.5228C15.6572 251.988 15.7933 252.082 15.9277 252.175C13.8091 242.119 13.2925 231.902 14.9852 221.753C16.751 211.165 21.0133 201.225 26.2056 191.658C28.5661 187.311 31.1224 183.051 33.8357 178.877C36.2768 175.121 39.1313 171.54 41.3465 167.672C43.7725 163.434 45.3619 158.823 46.049 154.088C46.758 149.211 46.175 144.457 45.6676 139.594C45.146 134.584 44.6856 129.569 44.2505 124.551C43.812 119.51 43.2156 114.577 41.68 109.695C38.5475 99.7305 32.0262 91.0953 26.8432 81.9586C21.4585 72.4674 16.5787 62.7413 12.2341 52.8209C10.1046 47.9586 8.10275 43.0499 6.23198 38.0999C5.30962 35.6642 4.42086 33.2179 3.56318 30.7623C2.80714 28.598 2.01079 26.4101 1.73946 24.1413C1.48073 21.9786 1.73273 19.7213 3.16751 17.9091C4.95092 15.6572 7.96834 14.6943 10.9312 14.6791C16.7669 14.6486 22.3633 17.7231 27.5043 19.8958C35.8803 23.4354 44.1749 27.1297 52.54 30.6907C55.0509 31.7595 57.5676 32.8169 60.0886 33.8674C60.5758 34.0709 61.0034 33.4138 60.512 33.2095C51.5613 29.4801 42.7065 25.5723 33.8071 21.7438C28.9189 19.6412 24.0433 17.4235 19.0292 15.5779C14.482 13.9053 8.73615 12.8357 4.44859 15.6846C0.859105 18.0677 0.386159 22.0312 1.16404 25.7369C2.18888 30.6274 4.31249 35.4409 6.11857 40.1285C9.99535 50.1908 14.4148 60.0807 19.3433 69.7564C21.8382 74.653 24.4659 79.4932 27.2212 84.2731C29.9732 89.0461 33.0402 93.6637 35.8056 98.4268C38.5903 103.224 40.6585 108.375 41.9102 113.678C43.1627 118.975 43.3852 124.412 43.8767 129.799C44.8057 139.966 47.026 150.272 43.7448 160.271C42.1655 165.083 39.4463 169.181 36.5305 173.395C33.7903 177.354 31.1887 181.393 28.7501 185.512C23.2764 194.759 18.3092 204.501 15.6278 214.751C12.9573 224.965 12.4306 235.61 13.9444 246.012C14.256 248.147 14.6727 250.263 15.1179 252.378C15.1524 252.54 15.3489 252.657 15.5228 252.657H15.5329C15.3976 252.564 15.2632 252.471 15.128 252.378C16.4259 259.227 17.7237 266.074 19.0224 272.922C19.2106 273.915 19.3996 274.908 19.5869 275.901C19.6793 276.383 20.4883 276.179 20.3976 275.699Z" fill="#151B37"/>
<path d="M127.184 275.729C127.157 268.119 126.06 260.454 124.978 252.92C123.85 245.06 121.806 237.415 119.611 229.751C117.148 221.157 114.632 212.557 113.073 203.781C112.249 199.139 111.701 194.448 111.606 189.745C111.56 187.492 111.394 184.988 111.836 182.763C111.873 182.577 111.901 182.469 111.956 182.292C112.553 180.38 113.467 178.503 114.212 176.635C115.904 172.393 117.594 168.152 119.286 163.911C125.109 149.311 130.931 134.71 136.754 120.11C138.389 116.009 140.231 111.975 141.949 107.902C145.622 99.1949 149.17 90.4432 152.574 81.6457C156.77 70.802 160.761 59.886 164.316 48.854C167.468 39.0639 170.44 29.1245 172.063 19.018C172.703 15.0248 173.84 9.96894 171.992 6.15796C170.47 3.0209 167.131 0.807041 163.381 0.432728C160.667 0.161332 157.808 0.929775 155.228 1.62656C148.761 3.37386 142.529 5.89343 136.454 8.5342C130.269 11.2222 124.183 14.1336 118.311 17.3523C116.241 18.4867 114.19 19.6584 112.237 20.9536C111.805 21.2403 112.223 21.902 112.66 21.6115C117.191 18.6071 122.161 16.1112 127.094 13.7037C133.48 10.5887 140.019 7.68875 146.735 5.20502C149.643 4.13011 152.591 3.12763 155.604 2.32106C158.547 1.53356 161.782 0.6904 164.83 1.45275C169.472 2.6138 172.158 6.52312 172.063 10.7633C172.022 12.5746 171.858 14.3837 171.631 16.1836C170.406 25.8929 167.626 35.4634 164.709 44.8486C161.326 55.7365 157.463 66.5001 153.395 77.192C149.902 86.3707 146.242 95.4968 142.449 104.576C140.609 108.983 138.718 113.369 136.819 117.754C134.088 124.057 131.716 130.506 129.177 136.875C126.412 143.808 123.647 150.74 120.882 157.672C117.811 165.375 114.741 173.077 111.67 180.779C110.336 184.122 110.667 187.801 110.814 191.317C111.183 200.102 113.022 208.777 115.264 217.309C117.42 225.514 120.027 233.619 122.032 241.856C123.98 249.863 124.965 258.061 125.752 266.222C126.057 269.381 126.333 272.556 126.344 275.729C126.346 276.219 127.186 276.221 127.184 275.729Z" fill="#151B37"/>
<path d="M56.0809 46.596C53.3189 46.0608 50.5568 45.5257 47.7948 44.9905C43.3896 44.1374 38.9836 43.2851 34.5784 42.4321C33.5645 42.2354 32.5506 42.0387 31.5366 41.8428C31.2132 41.7795 30.8318 42.1119 31.062 42.4023C33.4654 45.4365 35.8687 48.4699 38.2721 51.504C41.9103 56.0972 45.5493 60.6903 49.1875 65.2834C50.0158 66.3294 50.7971 67.45 51.7287 68.4258C53.5566 70.3401 56.2649 71.5042 59.0488 71.6056C59.961 71.6384 60.8859 71.5751 61.7965 71.5484C64.8871 71.4585 67.9776 71.3677 71.0689 71.2778C72.1736 71.2458 73.2631 71.2763 74.2165 70.6588C75.1028 70.0855 75.6471 69.176 75.7009 68.191C75.7328 67.6071 75.7042 67.017 75.7042 66.4331V52.4653C75.7042 51.9744 74.8642 51.9736 74.8642 52.4653V65.4839C74.8642 66.3286 74.8785 67.1741 74.8642 68.018C74.8382 69.5213 73.5638 70.443 71.9929 70.4888C69.157 70.5711 66.3201 70.6542 63.485 70.7365C62.3468 70.7701 61.2093 70.8028 60.0711 70.8364C58.0399 70.8958 56.0851 70.4987 54.3622 69.4878C52.6662 68.4929 51.6236 67.0589 50.4787 65.6128C47.0312 61.2598 43.582 56.9075 40.1344 52.5545C37.3984 49.1011 34.6624 45.6469 31.9264 42.1935C31.8802 42.1348 31.834 42.0761 31.7878 42.0173C31.6299 42.2041 31.4711 42.3909 31.3132 42.5777C34.0761 43.1128 36.8381 43.6473 39.6002 44.1824C44.0053 45.0355 48.4097 45.8886 52.8148 46.7416C53.8296 46.9383 54.8435 47.1342 55.8575 47.3309C56.385 47.4331 56.6101 46.6982 56.0809 46.596Z" fill="#151B37"/>
<path d="M102.087 51.2402C101.86 52.6872 101.632 54.1349 101.404 55.5818C101.049 57.8361 100.706 60.1544 100.863 62.433C101.056 65.2751 102.556 67.9966 104.996 69.7973C106.616 70.9927 108.483 71.6574 110.513 72.015C114.117 72.6492 117.72 73.2828 121.323 73.917C122.965 74.206 124.539 74.5048 126.17 73.8903C127.745 73.298 128.821 72.1301 129.395 70.6984C129.982 69.2408 130.568 67.7824 131.154 66.3241C132.308 63.4523 133.462 60.5798 134.616 57.7072C136.049 54.1432 137.482 50.5785 138.914 47.0145C140.348 43.4467 141.782 39.8797 143.216 36.3127C144.372 33.4318 145.531 30.5509 146.688 27.6707C147.28 26.1986 147.872 24.7258 148.464 23.2537C148.49 23.1889 148.516 23.1233 148.542 23.0577C148.649 22.7917 148.316 22.4967 148.026 22.5889C146.887 22.951 145.748 23.3131 144.608 23.6752C141.888 24.5397 139.17 25.4035 136.452 26.268C133.146 27.3177 129.841 28.3683 126.537 29.4188C123.692 30.3229 120.849 31.2271 118.004 32.1304C116.619 32.5703 115.189 32.953 113.83 33.4569C113.812 33.4646 113.791 33.4691 113.772 33.476C113.265 33.6368 113.483 34.374 113.995 34.2109C115.135 33.8488 116.274 33.4867 117.413 33.1246C120.132 32.2608 122.851 31.3963 125.571 30.5318C128.875 29.4821 132.18 28.4315 135.484 27.381C138.328 26.4776 141.174 25.5735 144.018 24.6693C144.957 24.3705 145.897 24.0717 146.836 23.7736C147.25 23.6417 147.814 23.554 148.19 23.3429C148.207 23.3337 148.231 23.3299 148.249 23.3238C148.077 23.1683 147.905 23.012 147.733 22.8557C147.336 23.8422 146.94 24.8287 146.542 25.8152C145.531 28.3324 144.519 30.8489 143.508 33.3654C142.149 36.7472 140.79 40.1298 139.431 43.5115C137.991 47.0931 136.552 50.6746 135.113 54.2561C133.864 57.3611 132.616 60.4669 131.369 63.572C130.568 65.564 129.767 67.556 128.967 69.548C128.82 69.9132 128.677 70.2806 128.526 70.6443C127.687 72.6592 125.389 73.8431 123.047 73.4459C119.804 72.8962 116.57 72.3062 113.33 71.736C112.28 71.5515 111.229 71.3723 110.181 71.1817C107.188 70.6389 104.578 68.9694 103.063 66.5566C102.241 65.2476 101.766 63.761 101.692 62.2546C101.61 60.5935 101.805 58.9079 101.991 57.2582C102.158 55.7892 102.444 54.3254 102.674 52.8633C102.748 52.3898 102.823 51.9164 102.897 51.443C102.973 50.9627 102.163 50.7554 102.087 51.2402Z" fill="#151B37"/>
<path d="M113.282 27.1229C113.701 30.468 113.863 34.4711 111.871 37.4816C111.579 37.923 111.303 38.2585 110.871 38.6008C111.029 38.4758 110.752 38.6976 110.677 38.7479C110.478 38.8821 110.209 39.0513 109.945 39.0231C109.475 38.9728 109.213 38.4071 109.065 38.0664C108.676 37.1691 108.51 36.1567 108.451 35.1961C108.421 34.7098 107.61 34.7021 107.611 35.1961C107.616 37.5449 107.621 39.8937 107.625 42.2425C107.626 42.8989 107.379 43.5538 107.155 44.1728C106.738 45.3224 106.136 46.4103 105.418 47.4295C104.05 49.3712 102.259 51.0499 100.31 52.5174C98.339 54.0025 96.1893 55.4098 93.6919 56.0395C91.7304 56.5335 89.7395 56.4679 87.7293 56.4679C86.8094 56.4679 85.8938 56.4702 84.9807 56.3513C83.3443 56.1386 81.8322 55.6042 80.3773 54.9074C77.6782 53.6145 75.2244 51.9167 72.9362 50.0947C71.9172 49.2828 70.8613 48.4625 70.0204 47.492C69.1174 46.4491 68.447 45.2439 68.0429 43.9708C67.6187 42.6374 67.4994 41.2233 67.2861 39.8533C67.0727 38.4857 66.861 37.118 66.6359 35.7519C66.5796 35.4073 66.5284 35.0604 66.4561 34.7174C66.3637 34.2767 65.6564 34.4094 65.632 34.8188C65.5993 35.3463 65.5203 35.8731 65.4094 36.3907C65.2675 37.0502 65.0768 38.1335 64.4064 38.5459C63.3522 39.1946 61.8955 36.6758 61.6309 36.1552C60.8127 34.5382 60.6388 32.7254 60.8018 30.9704C60.8472 30.4818 60.0071 30.4848 59.9618 30.9704C59.7156 33.6143 60.2911 36.6194 62.418 38.5855C62.9456 39.0727 63.6806 39.5682 64.4719 39.3563C65.4489 39.0948 65.8496 37.9711 66.0747 37.179C66.2931 36.4128 66.4233 35.6101 66.4721 34.8188C66.1965 34.8531 65.9218 34.8866 65.6472 34.9202C66.1747 37.4245 66.4628 39.9844 66.8551 42.5078C67.2793 45.2332 68.694 47.5728 70.8982 49.4459C73.0991 51.3137 75.447 53.0686 77.9966 54.5323C79.3205 55.2931 80.7149 55.9968 82.1867 56.4946C83.682 57 85.2806 57.2234 86.8724 57.2303C88.3996 57.2371 89.9613 57.3057 91.4826 57.1754C93.0383 57.0427 94.5529 56.6791 95.9726 56.086C97.1411 55.5973 98.2029 54.9287 99.2361 54.2381C103.384 51.4677 107.288 47.7108 108.375 42.9942C108.62 41.9284 108.462 40.7483 108.46 39.6681C108.457 38.2631 108.455 36.8573 108.452 35.4523C108.452 35.3669 108.452 35.2815 108.451 35.1961H107.611C107.699 36.6232 108.394 41.0502 110.995 39.4752C112.588 38.5085 113.393 36.6438 113.828 35.0193C114.518 32.4448 114.449 29.7362 114.122 27.1229C114.061 26.6411 113.22 26.635 113.282 27.1229Z" fill="#151B37"/>
<path d="M64.5234 275.783L68.8757 243.263L74.9349 247.413L81.2621 275.783" stroke="#151B37" stroke-width="0.00133333" stroke-miterlimit="2"/>
<path d="M43.6869 121.223C44.2707 128.127 45.0242 136.494 45.8298 143.632C51.0927 143.295 56.3522 142.914 61.6192 142.633C75.0658 141.915 88.3569 142.37 101.657 144.369C108.228 145.356 114.616 146.671 120.906 148.672C122.666 149.233 124.416 149.818 126.165 150.407C128.725 141.392 132.255 130.667 137.125 118.458C126.834 105.804 122.243 89.4416 124.524 73.8569C123.98 73.921 123.414 73.9126 122.849 73.8112L109.945 71.5409C105.676 70.79 102.438 67.8504 101.449 64.1698C97.998 64.1606 94.5379 64.3527 91.1777 64.618C85.9812 65.0305 80.6235 65.5153 75.3673 65.5062V67.9327C75.3673 69.4437 74.0451 70.6795 72.3911 70.7351L59.8392 71.101C57.65 71.1651 55.5315 70.5613 53.806 69.4254C54.8149 82.5012 49.5781 95.8415 39.9126 105.548C41.9505 110.584 43.2316 115.849 43.6869 121.223Z" fill="#151B37"/>
<path d="M124.403 250.063C109.134 253.879 93.4433 256.289 77.6413 257.248C74.0963 257.472 70.5354 257.616 66.982 257.681C53.4061 257.955 39.805 257.162 26.3804 255.293C22.7001 254.788 18.7814 254.067 15.7765 252.213H15.7606L15.6337 251.593C12.1921 235.846 13.4639 219.478 19.7667 204.481C22.9152 196.986 26.7777 189.846 30.6335 183.519C34.5834 185.863 39.2019 187.198 43.8196 188.129C50.7113 189.521 57.7374 190.451 64.7089 191.461C79.6683 193.639 92.5284 195.457 107.687 194.116C108.72 194.029 110.12 193.755 111.622 193.423C112.973 213.491 121.922 234.013 124.403 250.063Z" fill="#151B37"/>
<path d="M81.3397 58.5347C81.2716 60.4505 81.2036 62.3655 81.1356 64.2813C81.1171 64.7715 81.9571 64.7715 81.9756 64.2813C82.0436 62.3655 82.1117 60.4505 82.1797 58.5347C82.1973 58.0445 81.3573 58.0445 81.3397 58.5347Z" fill="#151B37"/>
<path d="M73.8528 186.022C74.9616 185.121 75.632 183.846 75.7487 182.504C75.7664 182.299 75.5421 182.123 75.3287 182.123C75.0868 182.123 74.9263 182.298 74.9087 182.504C74.8087 183.648 74.1972 184.72 73.2589 185.483C73.0892 185.619 73.1043 185.881 73.2589 186.022C73.426 186.174 73.6831 186.159 73.8528 186.022Z" fill="#151B37"/>
<path opacity="0.7" d="M7.96711 71.6373C4.57587 62.9595 4.71951 53.3043 7.81085 44.4199C11.7859 32.9962 22.3267 17.827 36.7141 16.3709C45.0313 15.5292 49.8901 21.3856 50.7688 28.2871C51.7348 35.874 49.4777 43.7239 53.8736 50.7314C58.6097 58.2832 68.3466 60.2257 74.5974 66.2864C88.6378 79.8996 71.1154 96.3442 55.4411 98.1411C39.1065 100.014 21.7001 92.2184 12.5747 79.9461C10.63 77.329 9.10116 74.538 7.96711 71.6373Z" fill="url(#paint3_linear_301_412)"/>
<path d="M90.2337 42.0204C89.355 42.1089 88.5997 42.9474 88.5997 42.9474C87.9821 42.6359 87.2905 42.0026 86.0553 42.025C84.1778 42.0577 81.7526 45.1119 79.9512 45.457C85.4521 45.2434 90.9715 45.249 96.4714 45.4709C94.6443 44.7361 93.1563 41.7247 90.2337 42.0204Z" fill="#151B37"/>
<path d="M93.9554 44.7649C92.8867 44.2734 91.4213 44.4021 90.2334 44.4152C88.88 44.4301 87.5245 44.4767 86.1711 44.459C85.0849 44.446 83.8692 44.3154 82.8888 44.7649C81.2241 45.5315 82.2517 47.1197 83.5003 47.7529C86.1136 49.0772 90.7194 49.0828 93.343 47.7529C94.5916 47.1197 95.6192 45.5315 93.9554 44.7649Z" fill="#151B37"/>
<path d="M85.2197 45.0238L85.4181 45.2438C85.5506 45.615 86.0161 45.7848 86.4344 45.8724C88.2543 46.2529 90.2335 45.9573 91.8233 45.0676C89.7711 44.1807 87.2863 44.1639 85.2197 45.0238Z" fill="white"/>
<defs>
<linearGradient id="paint0_linear_301_412" x1="149.389" y1="169.879" x2="149.389" y2="199.237" gradientUnits="userSpaceOnUse">
<stop stop-color="#EC53CD"/>
<stop offset="0.998978" stop-color="white" stop-opacity="0"/>
</linearGradient>
<linearGradient id="paint1_linear_301_412" x1="135.549" y1="56.387" x2="135.549" y2="201.039" gradientUnits="userSpaceOnUse">
<stop stop-color="#EC53CD"/>
<stop offset="0.998978" stop-color="white" stop-opacity="0"/>
</linearGradient>
<linearGradient id="paint2_linear_301_412" x1="92.0749" y1="132.697" x2="92.0749" y2="274.523" gradientUnits="userSpaceOnUse">
<stop stop-color="#EC53CD"/>
<stop offset="0.998978" stop-color="white" stop-opacity="0"/>
</linearGradient>
<linearGradient id="paint3_linear_301_412" x1="55.0395" y1="16.0926" x2="55.0395" y2="132.855" gradientUnits="userSpaceOnUse">
<stop stop-color="#EC53CD"/>
<stop offset="0.998978" stop-color="white" stop-opacity="0"/>
</linearGradient>
</defs>
</svg>
